<svg id="Group_7292" data-name="Group 7292" xmlns="http://www.w3.org/2000/svg" xmlns:xlink="http://www.w3.org/1999/xlink" width="1103.104" height="1153.218" viewBox="0 0 1103.104 1153.218">
  <defs>
    <clipPath id="clip-path">
      <rect id="Rectangle_7474" data-name="Rectangle 7474" width="1103.104" height="1153.218" fill="#ecfcff"/>
    </clipPath>
  </defs>
  <g id="Group_7291" data-name="Group 7291" clip-path="url(#clip-path)">
    <path id="Path_4198" data-name="Path 4198" d="M660.964,406.816,361.831,309.624a8.146,8.146,0,0,0-9.074,2.953L167.888,567.035a8.115,8.115,0,0,0,1.8,11.335l57.258,41.6a63.83,63.83,0,0,0,37.676,12.3,64.932,64.932,0,0,0,10.2-.811,63.882,63.882,0,0,0,41.98-25.729l94.131-129.555,152.307,49.488a64.4,64.4,0,0,0,81.06-41.3l21.874-67.322a8.12,8.12,0,0,0-5.214-10.226" transform="translate(280.22 520.944)" fill="#ecfcff"/>
    <path id="Path_4199" data-name="Path 4199" d="M481.141,379.543,575.27,249.988a64.336,64.336,0,0,0-14.234-89.865l-57.263-41.6a8.109,8.109,0,0,0-11.337,1.8L307.575,374.78a8.111,8.111,0,0,0-.005,9.538L492.441,638.773a8.117,8.117,0,0,0,11.337,1.8l57.266-41.6a64.417,64.417,0,0,0,14.231-89.86Z" transform="translate(515.533 197.041)" fill="#ecfcff"/>
    <path id="Path_4200" data-name="Path 4200" d="M352.759,319.657a8.113,8.113,0,0,0,9.074,2.95L660.96,225.418a8.115,8.115,0,0,0,5.214-10.228L644.3,147.87a64.42,64.42,0,0,0-81.065-41.3L410.932,156.055,316.809,26.5a64.4,64.4,0,0,0-89.86-14.239h-.005L169.678,53.87a8.122,8.122,0,0,0-1.793,11.337Z" transform="translate(280.213 -0.001)" fill="#ecfcff"/>
    <path id="Path_4201" data-name="Path 4201" d="M334.411,333.381l-299.127-97.2A8.134,8.134,0,0,0,25.055,241.4L3.181,308.72a64.337,64.337,0,0,0,41.311,81.06l152.3,49.483V599.407a64.4,64.4,0,0,0,64.332,64.332H331.9a8.119,8.119,0,0,0,8.118-8.118V341.1a8.111,8.111,0,0,0-5.611-7.721" transform="translate(0 397.222)" fill="#ecfcff"/>
    <path id="Path_4202" data-name="Path 4202" d="M331.9,34.343H261.127A64.4,64.4,0,0,0,196.8,98.675V258.813L44.493,308.3a64.334,64.334,0,0,0-41.311,81.06l21.874,67.32A8.095,8.095,0,0,0,35.285,461.9l299.127-97.2a8.109,8.109,0,0,0,5.608-7.721V42.459a8.116,8.116,0,0,0-8.116-8.116" transform="translate(-0.001 57.855)" fill="#ecfcff"/>
  </g>
</svg>
